<?xml version="1.0" encoding="utf-8"?>
<!-- Generator: Adobe Illustrator 25.4.1, SVG Export Plug-In . SVG Version: 6.00 Build 0)  -->
<svg version="1.1" id="Layer_1" xmlns="http://www.w3.org/2000/svg" xmlns:xlink="http://www.w3.org/1999/xlink" x="0px" y="0px"
	 viewBox="0 0 706.34 272.12" style="enable-background:new 0 0 706.34 272.12;" xml:space="preserve">
<style type="text/css">
	.st0{fill:#F15953;}
	.st1{fill:#53575A;}
	.st2{fill:#333666;}
</style>
<g>
	<g>
		<path class="st0" d="M27.09,178.24c-5.05-5.05-8.97-10.81-11.75-17.28c-2.91-6.8-4.37-13.88-4.37-21.26
			c0-15.15,5.37-28.09,16.12-38.84c5.11-5.05,10.97-8.96,17.57-11.75c6.8-2.91,13.95-4.37,21.46-4.37
			c15.15,0,28.12,5.37,38.93,16.12c5.05,5.05,8.96,10.87,11.75,17.48c2.91,6.8,4.37,13.92,4.37,21.36c0,2.52-0.88,4.66-2.62,6.41
			c-1.81,1.81-3.98,2.72-6.51,2.72H30.29c2.07,7.9,6.41,14.4,13.01,19.52c6.67,5.18,14.27,7.77,22.82,7.77
			c13.46,0,23.85-4.11,31.17-12.33c1.62-1.88,3.69-2.88,6.21-3.01c2.52-0.13,4.72,0.61,6.6,2.23c1.88,1.68,2.88,3.78,3.01,6.31
			c0.13,2.46-0.65,4.63-2.33,6.51c-10.87,12.3-25.76,18.45-44.66,18.45C50.91,194.26,37.9,188.92,27.09,178.24 M101.85,130.57
			c-2.07-8.03-6.38-14.63-12.91-19.81c-6.73-5.24-14.34-7.87-22.82-7.87c-8.54,0-16.18,2.62-22.91,7.87
			c-6.54,5.18-10.84,11.78-12.91,19.81H101.85z"/>
		<path class="st0" d="M146.8,13.67c2.46,0,4.59,0.91,6.41,2.72c1.75,1.75,2.62,3.88,2.62,6.41v162.44c0,2.52-0.87,4.66-2.62,6.41
			c-1.81,1.75-3.95,2.62-6.41,2.62c-2.52,0-4.69-0.88-6.51-2.62c-1.75-1.75-2.62-3.88-2.62-6.41V22.79c0-2.52,0.88-4.66,2.62-6.41
			C142.11,14.58,144.28,13.67,146.8,13.67"/>
		<path class="st0" d="M188.45,178.24c-5.05-5.05-8.97-10.81-11.75-17.28c-2.91-6.8-4.37-13.88-4.37-21.26
			c0-15.15,5.37-28.09,16.12-38.84c5.11-5.05,10.97-8.96,17.57-11.75c6.8-2.91,13.95-4.37,21.46-4.37
			c15.15,0,28.12,5.37,38.93,16.12c5.05,5.05,8.96,10.87,11.75,17.48c2.91,6.8,4.37,13.92,4.37,21.36c0,2.52-0.88,4.66-2.62,6.41
			c-1.81,1.81-3.98,2.72-6.51,2.72h-81.75c2.07,7.9,6.41,14.4,13.01,19.52c6.67,5.18,14.27,7.77,22.82,7.77
			c13.46,0,23.85-4.11,31.17-12.33c1.62-1.88,3.69-2.88,6.21-3.01c2.52-0.13,4.72,0.61,6.6,2.23c1.88,1.68,2.88,3.78,3.01,6.31
			c0.13,2.46-0.65,4.63-2.33,6.51c-10.87,12.3-25.76,18.45-44.66,18.45C212.27,194.26,199.26,188.92,188.45,178.24 M263.21,130.57
			c-2.07-8.03-6.38-14.63-12.91-19.81c-6.73-5.24-14.34-7.87-22.82-7.87c-8.54,0-16.18,2.62-22.91,7.87
			c-6.54,5.18-10.84,11.78-12.91,19.81H263.21z"/>
		<path class="st0" d="M391.27,37.27c0.51,1.1,0.77,2.23,0.77,3.4c0,1.16-0.29,2.36-0.88,3.59l-43.89,91.36
			c-1.75,3.63-4.9,5.44-9.43,5.44c-4.54,0-7.68-1.81-9.43-5.44l-43.99-91.36c-0.59-1.23-0.88-2.43-0.88-3.59
			c0-1.17,0.26-2.3,0.77-3.4c1.1-2.33,2.96-3.98,5.6-4.95c1.32-0.52,2.63-0.78,3.95-0.78c1.32,0,2.59,0.23,3.84,0.68
			c2.63,0.97,4.5,2.59,5.6,4.86l34.56,71.75l34.45-71.75c1.1-2.27,2.96-3.88,5.6-4.86c1.24-0.45,2.52-0.68,3.84-0.68
			c1.32,0,2.67,0.26,4.06,0.78C388.42,33.29,390.25,34.94,391.27,37.27"/>
		<path class="st0" d="M492.5,84.75c2.52,0,4.66,0.91,6.41,2.72c1.75,1.75,2.62,3.88,2.62,6.41v91.36c0,2.52-0.88,4.66-2.62,6.41
			c-1.75,1.75-3.88,2.62-6.41,2.62c-2.53,0-4.66-0.87-6.41-2.62c-1.81-1.75-2.72-3.88-2.72-6.41v-4.76
			c-10.16,9.19-22.04,13.79-35.63,13.79c-14.89,0-27.58-5.34-38.06-16.02c-10.55-10.68-15.83-23.56-15.83-38.64
			c0-15.15,5.27-28.06,15.83-38.74c10.48-10.74,23.17-16.12,38.06-16.12c13.59,0,25.47,4.6,35.63,13.79v-4.66
			c0-2.52,0.9-4.66,2.72-6.41C487.84,85.65,489.98,84.75,492.5,84.75 M447.75,176.11c9.84,0,18.25-3.56,25.24-10.68
			c6.92-7.18,10.39-15.79,10.39-25.83c0-10.1-3.46-18.74-10.39-25.92C466,106.56,457.58,103,447.75,103
			c-9.84,0-18.25,3.56-25.24,10.68c-6.99,7.18-10.49,15.83-10.49,25.92c0,10.03,3.49,18.64,10.49,25.83
			C429.49,172.55,437.91,176.11,447.75,176.11"/>
		<path class="st0" d="M567.75,84.74c2.53,0,4.66,0.91,6.41,2.72c1.75,1.75,2.62,3.88,2.62,6.41c0,2.53-0.88,4.66-2.62,6.41
			c-1.75,1.81-3.88,2.72-6.41,2.72h-14.18v82.23c0,2.52-0.87,4.66-2.62,6.41c-1.75,1.75-3.88,2.62-6.41,2.62
			c-2.52,0-4.66-0.88-6.41-2.62c-1.81-1.75-2.72-3.88-2.72-6.41V103h-14.08c-2.52,0-4.69-0.91-6.51-2.72
			c-1.75-1.75-2.62-3.88-2.62-6.41c0-2.52,0.88-4.66,2.62-6.41c1.81-1.81,3.98-2.72,6.51-2.72h14.08V22.79
			c0-2.52,0.91-4.66,2.72-6.41c1.75-1.81,3.88-2.72,6.41-2.72c2.52,0,4.66,0.91,6.41,2.72c1.75,1.75,2.62,3.88,2.62,6.41v61.95
			H567.75z"/>
		<path class="st0" d="M597.75,178.24c-5.05-5.05-8.97-10.81-11.75-17.28c-2.91-6.8-4.37-13.88-4.37-21.26
			c0-15.15,5.37-28.09,16.12-38.84c5.11-5.05,10.97-8.96,17.57-11.75c6.8-2.91,13.95-4.37,21.46-4.37
			c15.15,0,28.12,5.37,38.93,16.12c5.05,5.05,8.96,10.87,11.75,17.48c2.91,6.8,4.37,13.92,4.37,21.36c0,2.52-0.88,4.66-2.62,6.41
			c-1.81,1.81-3.98,2.72-6.51,2.72h-81.75c2.07,7.9,6.41,14.4,13.01,19.52c6.67,5.18,14.27,7.77,22.82,7.77
			c13.46,0,23.85-4.11,31.17-12.33c1.62-1.88,3.69-2.88,6.21-3.01c2.52-0.13,4.72,0.61,6.6,2.23c1.88,1.68,2.88,3.78,3.01,6.31
			c0.13,2.46-0.65,4.63-2.33,6.51c-10.87,12.3-25.76,18.45-44.66,18.45C621.57,194.26,608.56,188.92,597.75,178.24 M672.51,130.57
			c-2.07-8.03-6.38-14.63-12.91-19.81c-6.73-5.24-14.34-7.87-22.82-7.87c-8.54,0-16.18,2.62-22.91,7.87
			c-6.54,5.18-10.84,11.78-12.91,19.81H672.51z"/>
		<path class="st1" d="M390.02,227.41h-104.3c-3.18-3.18-3.18-8.38,0-11.56l46.37-58.81c3.18-3.18,8.38-3.18,11.56,0l46.37,58.81
			C393.19,219.03,393.19,224.23,390.02,227.41"/>
	</g>
	<g>
		<path class="st2" d="M450.46,231.28c2.53,0,4.5,0.86,5.9,2.59s2.1,4.17,2.1,7.34s-0.71,5.62-2.12,7.37s-3.37,2.63-5.88,2.63
			c-1.25,0-2.4-0.23-3.44-0.69s-1.91-1.17-2.61-2.14h-0.21l-0.62,2.48h-2.09v-27.35h2.92v6.64c0,1.49-0.05,2.82-0.14,4.01h0.14
			C445.77,232.24,447.79,231.28,450.46,231.28z M450.04,233.72c-1.99,0-3.43,0.57-4.31,1.71s-1.32,3.07-1.32,5.77
			s0.45,4.64,1.35,5.81s2.35,1.75,4.34,1.75c1.79,0,3.13-0.65,4.01-1.96s1.32-3.18,1.32-5.63c0-2.51-0.44-4.38-1.32-5.61
			S451.88,233.72,450.04,233.72z"/>
		<path class="st2" d="M463.2,231.59h3.13l4.22,10.99c0.93,2.51,1.5,4.32,1.72,5.43h0.14c0.15-0.6,0.47-1.62,0.96-3.07
			s2.08-5.9,4.77-13.35h3.13l-8.28,21.94c-0.82,2.17-1.78,3.71-2.87,4.61s-2.44,1.36-4.03,1.36c-0.89,0-1.77-0.1-2.64-0.3v-2.34
			c0.64,0.14,1.37,0.21,2.16,0.21c2,0,3.43-1.12,4.29-3.38l1.07-2.74L463.2,231.59z"/>
		<path class="st2" d="M513.91,250.86h-14.33v-25.7h14.33v2.65h-11.34v8.28h10.65v2.64h-10.65v9.46h11.34V250.86z"/>
		<path class="st2" d="M524.79,250.86h-2.92v-27.35h2.92V250.86z"/>
		<path class="st2" d="M558.23,250.86v-12.53c0-1.54-0.33-2.69-0.98-3.45s-1.68-1.15-3.06-1.15c-1.82,0-3.16,0.52-4.03,1.56
			s-1.3,2.65-1.3,4.82v10.76h-2.92v-12.53c0-1.54-0.33-2.69-0.98-3.45s-1.68-1.15-3.08-1.15c-1.83,0-3.17,0.55-4.02,1.64
			s-1.27,2.89-1.27,5.39v10.11h-2.92v-19.27h2.37l0.47,2.64h0.14c0.55-0.94,1.33-1.67,2.33-2.2s2.12-0.79,3.37-0.79
			c3.01,0,4.98,1.09,5.91,3.27h0.14c0.57-1.01,1.41-1.8,2.5-2.39s2.33-0.88,3.73-0.88c2.18,0,3.81,0.56,4.9,1.68
			s1.63,2.91,1.63,5.37v12.57H558.23z"/>
		<path class="st2" d="M596.85,244.02c0,2.26-0.82,4.03-2.46,5.29s-3.87,1.9-6.68,1.9c-3.05,0-5.39-0.39-7.03-1.18v-2.88
			c1.05,0.45,2.2,0.8,3.45,1.05s2.47,0.39,3.69,0.39c1.99,0,3.49-0.38,4.5-1.13s1.51-1.81,1.51-3.16c0-0.89-0.18-1.62-0.54-2.19
			s-0.96-1.09-1.79-1.57s-2.11-1.03-3.82-1.63c-2.39-0.86-4.1-1.87-5.12-3.04s-1.54-2.7-1.54-4.59c0-1.98,0.74-3.56,2.23-4.73
			s3.46-1.76,5.91-1.76c2.55,0,4.9,0.47,7.05,1.41l-0.93,2.6c-2.12-0.89-4.18-1.34-6.19-1.34c-1.58,0-2.82,0.34-3.71,1.02
			s-1.34,1.62-1.34,2.83c0,0.89,0.16,1.62,0.49,2.19s0.88,1.09,1.66,1.56s1.97,1,3.58,1.57c2.7,0.96,4.55,1.99,5.56,3.09
			S596.85,242.26,596.85,244.02z"/>
		<path class="st2" d="M610.59,248.8c0.52,0,1.01-0.04,1.49-0.11s0.86-0.16,1.14-0.24v2.23c-0.32,0.15-0.78,0.28-1.4,0.38
			s-1.17,0.15-1.66,0.15c-3.73,0-5.59-1.96-5.59-5.89v-11.46h-2.76v-1.41l2.76-1.21l1.23-4.11h1.69v4.46h5.59v2.27h-5.59v11.34
			c0,1.16,0.28,2.05,0.83,2.67S609.63,248.8,610.59,248.8z"/>
		<path class="st2" d="M628.57,231.24c0.86,0,1.62,0.07,2.3,0.21l-0.4,2.71c-0.8-0.18-1.5-0.26-2.11-0.26c-1.56,0-2.89,0.63-4,1.9
			s-1.66,2.84-1.66,4.73v10.34h-2.92v-19.27h2.41l0.33,3.57h0.14c0.71-1.25,1.58-2.22,2.58-2.9S627.36,231.24,628.57,231.24z"/>
		<path class="st2" d="M645.31,251.21c-2.85,0-5.09-0.87-6.74-2.6s-2.47-4.14-2.47-7.22c0-3.11,0.76-5.57,2.29-7.4
			s3.58-2.74,6.16-2.74c2.41,0,4.32,0.79,5.73,2.38s2.11,3.68,2.11,6.28v1.85h-13.27c0.06,2.26,0.63,3.98,1.71,5.15
			s2.61,1.76,4.58,1.76c2.07,0,4.12-0.43,6.15-1.3v2.6c-1.03,0.45-2.01,0.76-2.93,0.96S646.61,251.21,645.31,251.21z M644.52,233.69
			c-1.55,0-2.78,0.5-3.7,1.51s-1.46,2.4-1.63,4.18h10.07c0-1.84-0.41-3.25-1.23-4.23S646.05,233.69,644.52,233.69z"/>
		<path class="st2" d="M668.21,251.21c-2.85,0-5.09-0.87-6.74-2.6s-2.47-4.14-2.47-7.22c0-3.11,0.76-5.57,2.29-7.4
			s3.58-2.74,6.16-2.74c2.41,0,4.32,0.79,5.73,2.38s2.11,3.68,2.11,6.28v1.85h-13.27c0.06,2.26,0.63,3.98,1.71,5.15
			s2.61,1.76,4.58,1.76c2.07,0,4.12-0.43,6.15-1.3v2.6c-1.03,0.45-2.01,0.76-2.93,0.96S669.51,251.21,668.21,251.21z M667.42,233.69
			c-1.55,0-2.78,0.5-3.7,1.51s-1.46,2.4-1.63,4.18h10.07c0-1.84-0.41-3.25-1.23-4.23S668.94,233.69,667.42,233.69z"/>
		<path class="st2" d="M689.19,248.8c0.52,0,1.01-0.04,1.49-0.11s0.86-0.16,1.14-0.24v2.23c-0.32,0.15-0.78,0.28-1.4,0.38
			s-1.17,0.15-1.66,0.15c-3.73,0-5.59-1.96-5.59-5.89v-11.46h-2.76v-1.41l2.76-1.21l1.23-4.11h1.69v4.46h5.59v2.27h-5.59v11.34
			c0,1.16,0.28,2.05,0.83,2.67S688.23,248.8,689.19,248.8z"/>
	</g>
</g>
</svg>
